<?xml version="1.0" encoding="utf-8"?>
<svg xmlns="http://www.w3.org/2000/svg" viewBox="129.1353 346.6493 294.75 173.2253" width="294.75px" height="173.225px">
  <defs>
    <clipPath id="5bfec4af3b">
      <path d="M 257.46875 633 L 552.21875 633 L 552.21875 806.957031 L 257.46875 806.957031 Z M 257.46875 633 " clip-rule="nonzero"/>
    </clipPath>
    <clipPath id="cff9723670">
      <rect x="0" width="283" y="0" height="55"/>
    </clipPath>
  </defs>
  <path fill="#ffffff" d="M 251.342 368.671 C 252.748 368.733 254.123 368.776 255.514 368.839 C 256.662 368.882 257.811 369.003 258.947 369.171 C 259.549 369.26 259.912 369.592 259.99 370.092 C 260.123 370.893 259.533 371.483 258.643 371.378 C 257.025 371.167 255.408 371.03 253.791 370.983 C 248.287 370.831 242.877 371.3 237.662 373.237 C 235.229 374.143 232.99 375.366 231.041 377.104 C 228.338 379.522 226.615 382.534 225.842 386.069 C 225.01 389.862 224.92 393.686 225.721 397.495 C 226.795 402.604 229.514 406.655 233.674 409.784 C 236.377 411.811 239.4 413.186 242.619 414.171 C 242.756 414.214 242.908 414.229 243.045 414.292 C 243.256 414.366 243.408 414.292 243.436 414.077 C 243.635 412.553 244.193 411.116 244.436 409.604 C 244.436 409.573 244.404 409.542 244.389 409.514 C 244.041 409.436 243.877 409.725 243.678 409.921 C 243.33 410.284 242.998 410.663 242.65 411.026 C 242.123 411.585 241.518 411.628 241.018 411.175 C 240.565 410.768 240.533 410.163 240.986 409.604 C 242.166 408.151 243.557 406.913 245.053 405.796 C 248.318 403.331 251.932 401.655 255.983 401.018 C 259.065 400.534 262.166 400.612 265.264 400.866 C 265.869 400.913 266.459 400.96 267.092 401.003 C 267.061 400.581 266.791 400.475 266.623 400.292 C 265.143 398.842 263.815 397.268 262.799 395.44 C 262.693 395.26 262.588 395.077 262.514 394.897 C 262.193 394.186 262.377 393.596 262.967 393.311 C 263.557 393.022 264.162 393.233 264.494 393.913 C 264.869 394.655 265.311 395.35 265.791 396.014 C 268.182 399.206 271.295 401.503 274.818 403.284 C 278.037 404.917 281.467 405.87 284.975 406.628 C 290.506 407.803 296.084 408.53 301.721 408.967 C 301.936 408.983 302.131 408.999 302.342 409.03 C 303.006 409.135 303.459 409.635 303.432 410.21 C 303.4 410.842 302.858 411.28 302.131 411.221 C 300.514 411.1 298.897 410.964 297.279 410.784 C 292.139 410.21 287.029 409.436 282.014 408.182 C 278.443 407.292 274.998 406.065 271.838 404.163 C 271.506 403.952 271.143 403.846 270.768 403.784 C 267.412 403.241 264.041 402.862 260.623 402.878 C 257.315 402.893 254.092 403.393 251.057 404.796 C 250.057 405.264 249.092 405.764 248.17 406.354 C 247.897 406.522 247.701 406.686 247.775 407.05 C 247.85 407.382 247.686 407.686 247.565 407.987 C 245.553 412.581 244.904 417.405 245.311 422.362 C 245.479 424.385 246.233 426.26 247.17 428.061 C 247.475 428.651 247.486 428.651 248.123 428.425 C 250.615 427.514 253.143 426.698 255.725 426.05 C 260.154 424.948 264.627 424.206 269.209 424.264 C 272.611 424.311 275.983 424.706 279.338 425.296 C 284.658 426.245 289.9 427.514 295.072 429.12 C 295.268 429.178 295.479 429.225 295.662 429.315 C 296.236 429.589 296.494 430.163 296.279 430.706 C 296.053 431.28 295.541 431.553 294.92 431.37 C 293.498 430.979 292.096 430.522 290.674 430.132 C 285.838 428.784 280.924 427.729 275.951 427.003 C 269.147 426.003 262.467 426.534 255.846 428.288 C 253.186 428.999 250.572 429.815 248.002 430.796 C 246.854 431.233 246.443 431.128 245.795 430.069 C 244.963 428.741 244.346 427.303 243.83 425.823 C 242.924 423.163 242.908 420.428 243.045 417.675 C 243.045 417.585 243.061 417.495 243.061 417.405 C 243.119 416.467 243.135 416.589 242.272 416.346 C 237.74 415.046 233.658 412.944 230.197 409.71 C 226.037 405.839 223.772 401.018 223.166 395.397 C 222.744 391.542 222.986 387.717 224.135 383.999 C 225.525 379.464 228.275 375.956 232.283 373.432 C 235.44 371.436 238.916 370.245 242.576 369.55 C 244.283 369.214 246.006 368.96 247.76 368.866 C 248.303 368.839 248.592 368.612 248.865 368.171 C 250.83 365.073 253.233 362.382 256.135 360.132 C 260.67 356.608 265.748 354.522 271.522 354.237 C 277.959 353.917 284.037 355.264 289.69 358.362 C 293.424 360.417 296.342 363.335 298.233 367.206 C 299.061 368.913 299.635 370.714 299.908 372.585 C 300.061 373.569 300.045 373.569 301.072 373.733 C 304.322 374.233 307.393 375.233 310.248 376.862 C 314.104 379.069 316.897 382.198 318.455 386.385 C 319.572 389.393 319.877 392.538 319.666 395.714 C 319.529 397.889 319.24 400.065 318.576 402.167 C 317.654 405.085 316.096 407.655 314.115 409.952 C 311.049 413.503 307.299 416.21 303.205 418.464 C 301.315 419.507 299.365 420.413 297.354 421.214 C 297.111 421.319 296.854 421.425 296.615 421.483 C 296.025 421.651 295.451 421.35 295.252 420.803 C 295.057 420.307 295.283 419.745 295.799 419.444 C 295.947 419.354 296.131 419.323 296.295 419.249 C 301.283 417.268 305.881 414.667 309.9 411.085 C 312.303 408.94 314.299 406.475 315.69 403.542 C 316.596 401.624 317.018 399.581 317.291 397.483 C 317.592 395.034 317.623 392.6 317.201 390.151 C 316.354 385.253 313.768 381.55 309.553 378.964 C 306.467 377.089 303.084 376.124 299.529 375.698 C 298.428 375.565 297.975 375.112 297.885 374.022 C 297.416 368.745 294.877 364.651 290.674 361.553 C 287.772 359.421 284.49 358.135 280.998 357.319 C 277.174 356.413 273.322 356.018 269.404 356.624 C 265.354 357.26 261.697 358.8 258.385 361.19 C 255.787 363.077 253.549 365.346 251.674 367.96 C 251.463 368.186 251.283 368.323 251.342 368.671 Z M 244.479 409.241 C 244.463 409.257 244.42 409.288 244.436 409.303 C 244.436 409.346 244.463 409.378 244.479 409.425 C 244.494 409.409 244.541 409.378 244.525 409.362 C 244.51 409.315 244.494 409.288 244.479 409.241 Z M 244.479 409.241" fill-opacity="1" fill-rule="nonzero" style="stroke-width: 1;" transform="matrix(0.9999999999999999, 0, 0, 0.9999999999999999, -1.4210854715202004e-14, 0)"/>
  <g clip-path="url(#5bfec4af3b)" transform="matrix(0.9999999999999999, 0, 0, 0.9999999999999999, -128.3334503173828, -286.6611022949219)">
    <path fill="#ffffff" d="M 257.484375 746.507812 C 257.484375 737.199219 257.484375 727.886719 257.46875 718.589844 C 257.46875 717.820312 257.601562 717.183594 258.34375 716.808594 C 258.707031 716.625 259.085938 716.65625 259.476562 716.65625 C 265.011719 716.65625 270.527344 716.65625 276.058594 716.65625 C 283.617188 716.65625 291.191406 716.65625 298.746094 716.65625 C 298.960938 716.65625 299.15625 716.640625 299.367188 716.65625 C 299.804688 716.6875 299.972656 716.488281 300.0625 716.050781 C 300.378906 714.464844 300.726562 712.878906 301.105469 711.304688 C 302.570312 705.257812 304.597656 699.425781 307.152344 693.757812 C 309.660156 688.164062 312.640625 682.84375 316.117188 677.792969 C 318.445312 674.410156 320.953125 671.171875 323.671875 668.089844 C 325.515625 666.003906 327.40625 663.980469 329.417969 662.058594 C 335.085938 656.617188 341.269531 651.855469 348.023438 647.835938 C 354.402344 644.027344 361.128906 640.925781 368.1875 638.585938 C 373.238281 636.90625 378.375 635.605469 383.621094 634.746094 C 386.507812 634.277344 389.394531 633.929688 392.296875 633.65625 C 396.304688 633.292969 400.324219 633.25 404.328125 633.371094 C 407.035156 633.445312 409.742188 633.6875 412.445312 634.003906 C 416.347656 634.457031 420.199219 635.125 424.023438 636.015625 C 430.617188 637.558594 436.996094 639.75 443.175781 642.558594 C 450.007812 645.671875 456.402344 649.496094 462.386719 654.003906 C 467.347656 657.722656 471.882812 661.894531 476.082031 666.441406 C 481.269531 672.066406 485.757812 678.203125 489.550781 684.851562 C 492.996094 690.871094 495.824219 697.15625 497.984375 703.746094 C 499.269531 707.675781 500.359375 711.652344 501.128906 715.71875 C 501.144531 715.78125 501.160156 715.839844 501.160156 715.886719 C 501.339844 716.65625 501.339844 716.65625 502.140625 716.65625 C 506.964844 716.65625 511.769531 716.65625 516.59375 716.65625 C 527.640625 716.65625 538.691406 716.65625 549.742188 716.65625 C 550.316406 716.65625 550.859375 716.703125 551.386719 716.914062 C 552.082031 717.199219 552.476562 717.699219 552.492188 718.46875 C 552.492188 718.652344 552.492188 718.816406 552.492188 719 C 552.492188 737.410156 552.492188 755.820312 552.492188 774.214844 C 552.492188 776.242188 552.039062 776.695312 549.984375 776.695312 C 532.722656 776.695312 515.472656 776.695312 498.210938 776.695312 C 496.851562 776.695312 497.019531 776.800781 497.003906 775.515625 C 497.003906 774.988281 497.003906 774.457031 497.003906 773.914062 C 497.003906 773.582031 497.125 773.414062 497.472656 773.414062 C 497.714844 773.414062 497.941406 773.414062 498.183594 773.414062 C 514.808594 773.414062 531.449219 773.414062 548.078125 773.414062 C 549.421875 773.414062 549.300781 773.550781 549.300781 772.175781 C 549.300781 755.15625 549.300781 738.136719 549.300781 721.117188 C 549.300781 719.664062 549.484375 719.816406 548.046875 719.816406 C 531.464844 719.816406 514.898438 719.816406 498.316406 719.816406 C 498.195312 719.816406 498.074219 719.816406 497.96875 719.816406 C 496.957031 719.816406 496.941406 719.859375 497.019531 718.863281 C 497.183594 716.476562 496.445312 714.253906 495.882812 712 C 494.386719 705.878906 492.273438 699.96875 489.597656 694.253906 C 486.253906 687.105469 482.113281 680.453125 477.1875 674.300781 C 474.375 670.796875 471.351562 667.484375 468.070312 664.402344 C 462.585938 659.246094 456.597656 654.757812 450.097656 650.964844 C 443.691406 647.230469 436.964844 644.253906 429.890625 642.046875 C 425.292969 640.609375 420.625 639.523438 415.863281 638.78125 C 412.128906 638.207031 408.378906 637.828125 404.601562 637.675781 C 402.578125 637.601562 400.566406 637.542969 398.570312 637.601562 C 395.53125 637.691406 392.507812 637.890625 389.484375 638.238281 C 385.875 638.644531 382.304688 639.25 378.769531 640.050781 C 372.285156 641.53125 365.996094 643.648438 359.933594 646.414062 C 352.316406 649.890625 345.273438 654.257812 338.757812 659.519531 C 334.933594 662.601562 331.382812 665.988281 328.070312 669.601562 C 323.386719 674.710938 319.320312 680.273438 315.8125 686.273438 C 312.171875 692.515625 309.253906 699.09375 307.046875 705.96875 C 306.035156 709.144531 305.21875 712.378906 304.476562 715.628906 C 304.308594 716.398438 304.507812 717.140625 304.460938 717.894531 C 304.445312 718.242188 304.460938 718.605469 304.460938 718.953125 C 304.460938 719.800781 304.445312 719.816406 303.570312 719.816406 C 297.691406 719.816406 291.808594 719.816406 285.929688 719.816406 C 277.859375 719.816406 269.800781 719.816406 261.730469 719.816406 C 260.613281 719.816406 260.65625 719.726562 260.65625 720.859375 C 260.65625 738 260.65625 755.140625 260.65625 772.265625 C 260.65625 772.328125 260.65625 772.386719 260.65625 772.449219 C 260.65625 773.414062 260.65625 773.414062 261.640625 773.414062 C 275.289062 773.414062 288.9375 773.414062 302.585938 773.414062 C 303.175781 773.414062 303.917969 773.15625 304.296875 773.535156 C 304.71875 773.960938 304.417969 774.714844 304.445312 775.320312 C 304.460938 775.605469 304.445312 775.910156 304.445312 776.210938 C 304.445312 776.5 304.296875 776.648438 304.007812 776.664062 C 303.796875 776.679688 303.601562 776.679688 303.386719 776.679688 C 289.027344 776.679688 274.667969 776.679688 260.308594 776.679688 C 259.703125 776.679688 259.128906 776.589844 258.570312 776.394531 C 257.875 776.152344 257.511719 775.667969 257.46875 774.941406 C 257.453125 774.65625 257.46875 774.351562 257.46875 774.050781 C 257.484375 764.890625 257.484375 755.699219 257.484375 746.507812 Z M 453.910156 792.171875 C 454.226562 792.171875 454.558594 792.1875 454.875 792.15625 C 455.707031 792.066406 456.238281 791.433594 456.238281 790.585938 C 456.238281 789.722656 455.707031 789.105469 454.875 789.015625 C 454.664062 788.984375 454.46875 789 454.257812 789 C 419.703125 789 385.132812 789 350.578125 789 C 350.398438 789 350.214844 788.984375 350.050781 789 C 349.355469 789.058594 348.78125 789.527344 348.644531 790.148438 C 348.460938 790.933594 348.734375 791.570312 349.386719 791.976562 C 349.792969 792.234375 350.230469 792.171875 350.667969 792.171875 C 367.917969 792.171875 385.164062 792.171875 402.425781 792.171875 C 419.597656 792.171875 436.753906 792.171875 453.910156 792.171875 Z M 439.214844 806.53125 C 439.488281 806.53125 439.746094 806.546875 440.015625 806.519531 C 440.863281 806.441406 441.5 805.730469 441.5 804.914062 C 441.484375 804.097656 440.832031 803.417969 439.988281 803.34375 C 439.777344 803.328125 439.578125 803.34375 439.367188 803.34375 C 415.242188 803.34375 391.105469 803.34375 366.980469 803.34375 C 366.738281 803.34375 366.511719 803.328125 366.269531 803.359375 C 365.632812 803.433594 365.089844 803.917969 364.953125 804.507812 C 364.789062 805.234375 365.015625 805.824219 365.574219 806.230469 C 365.996094 806.546875 366.449219 806.519531 366.917969 806.519531 C 378.996094 806.519531 391.074219 806.519531 403.164062 806.519531 C 415.167969 806.53125 427.199219 806.53125 439.214844 806.53125 Z M 439.214844 806.53125 " fill-opacity="1" fill-rule="nonzero"/>
  </g>
  <g transform="matrix(0.9999999999999999, 0, 0, 0.9999999999999999, 145.66654968261716, 432.338897705078)">
    <g clip-path="url(#cff9723670)">
      <g fill="#ffffff" fill-opacity="1">
        <g transform="translate(1.415417, 42.816083)">
          <g>
            <path d="M 21.328125 -24.625 L 21.328125 -8.8125 C 21.328125 -7.71875 21.523438 -6.796875 21.921875 -6.046875 C 22.316406 -5.296875 22.820312 -4.691406 23.4375 -4.234375 C 24.050781 -3.785156 24.726562 -3.460938 25.46875 -3.265625 C 26.21875 -3.066406 26.941406 -2.96875 27.640625 -2.96875 C 28.347656 -2.96875 29.0625 -3.066406 29.78125 -3.265625 C 30.5 -3.460938 31.15625 -3.785156 31.75 -4.234375 C 32.34375 -4.691406 32.828125 -5.296875 33.203125 -6.046875 C 33.578125 -6.796875 33.765625 -7.71875 33.765625 -8.8125 L 33.765625 -24.625 L 38.21875 -24.625 L 38.21875 -9.34375 C 38.21875 -7.59375 37.953125 -6.09375 37.421875 -4.84375 C 36.898438 -3.59375 36.171875 -2.5625 35.234375 -1.75 C 34.296875 -0.9375 33.179688 -0.335938 31.890625 0.046875 C 30.597656 0.441406 29.179688 0.640625 27.640625 0.640625 C 26.109375 0.640625 24.6875 0.441406 23.375 0.046875 C 22.0625 -0.335938 20.921875 -0.9375 19.953125 -1.75 C 18.984375 -2.5625 18.222656 -3.59375 17.671875 -4.84375 C 17.128906 -6.09375 16.859375 -7.59375 16.859375 -9.34375 L 16.859375 -20.765625 L 8.59375 -20.765625 L 8.59375 0 L 4.125 0 L 4.125 -32.8125 L 8.59375 -32.8125 L 8.59375 -24.625 Z M 21.328125 -24.625 "/>
          </g>
        </g>
      </g>
      <g fill="#ffffff" fill-opacity="1">
        <g transform="translate(63.892312, 42.816083)">
          <g>
            <path d="M 3.90625 0 L 3.90625 -20.484375 C 3.90625 -24.804688 4.960938 -28.046875 7.078125 -30.203125 C 9.191406 -32.367188 12.328125 -33.453125 16.484375 -33.453125 C 20.617188 -33.453125 23.742188 -32.359375 25.859375 -30.171875 C 27.972656 -27.992188 29.03125 -24.765625 29.03125 -20.484375 L 29.03125 0 L 24.578125 0 L 24.578125 -19.9375 C 24.578125 -21.707031 24.414062 -23.21875 24.09375 -24.46875 C 23.78125 -25.726562 23.296875 -26.753906 22.640625 -27.546875 C 21.984375 -28.347656 21.144531 -28.929688 20.125 -29.296875 C 19.101562 -29.660156 17.890625 -29.84375 16.484375 -29.84375 C 15.046875 -29.84375 13.816406 -29.660156 12.796875 -29.296875 C 11.785156 -28.929688 10.945312 -28.347656 10.28125 -27.546875 C 9.625 -26.753906 9.140625 -25.726562 8.828125 -24.46875 C 8.523438 -23.21875 8.375 -21.707031 8.375 -19.9375 L 8.375 0 Z M 3.90625 0 "/>
          </g>
        </g>
      </g>
      <g fill="#ffffff" fill-opacity="1">
        <g transform="translate(117.819447, 42.816083)">
          <g>
            <path d="M 28.703125 -3.34375 L 28.703125 1.1875 L 6.6875 -5.84375 C 5.769531 -6.125 4.9375 -6.472656 4.1875 -6.890625 C 3.4375 -7.304688 2.828125 -7.789062 2.359375 -8.34375 C 1.898438 -8.90625 1.628906 -9.535156 1.546875 -10.234375 C 1.460938 -10.941406 1.632812 -11.722656 2.0625 -12.578125 C 2.5 -13.441406 3.226562 -14.378906 4.25 -15.390625 C 5.269531 -16.398438 6.648438 -17.488281 8.390625 -18.65625 C 10.660156 -20.1875 12.9375 -21.554688 15.21875 -22.765625 C 17.507812 -23.984375 19.859375 -25.113281 22.265625 -26.15625 L 17.71875 -32.8125 L 22.953125 -32.8125 L 28.640625 -24.578125 C 26.984375 -23.941406 25.410156 -23.300781 23.921875 -22.65625 C 22.429688 -22.007812 20.976562 -21.332031 19.5625 -20.625 C 18.15625 -19.914062 16.765625 -19.160156 15.390625 -18.359375 C 14.023438 -17.566406 12.640625 -16.703125 11.234375 -15.765625 C 9.722656 -14.753906 8.617188 -13.910156 7.921875 -13.234375 C 7.222656 -12.554688 6.828125 -11.988281 6.734375 -11.53125 C 6.640625 -11.082031 6.796875 -10.71875 7.203125 -10.4375 C 7.617188 -10.15625 8.171875 -9.90625 8.859375 -9.6875 Z M 28.703125 -3.34375 "/>
          </g>
        </g>
      </g>
      <g fill="#ffffff" fill-opacity="1">
        <g transform="translate(171.021272, 42.816083)">
          <g>
            <path d="M 8.375 -32.8125 L 8.375 -24.625 L 29.25 -24.625 L 29.25 -20.765625 L 8.375 -20.765625 L 8.375 -12.875 C 8.375 -11.101562 8.523438 -9.59375 8.828125 -8.34375 C 9.140625 -7.09375 9.625 -6.066406 10.28125 -5.265625 C 10.945312 -4.460938 11.785156 -3.878906 12.796875 -3.515625 C 13.816406 -3.148438 15.046875 -2.96875 16.484375 -2.96875 C 17.890625 -2.96875 19.101562 -3.148438 20.125 -3.515625 C 21.144531 -3.878906 21.984375 -4.460938 22.640625 -5.265625 C 23.296875 -6.066406 23.78125 -7.09375 24.09375 -8.34375 C 24.414062 -9.59375 24.578125 -11.101562 24.578125 -12.875 L 24.578125 -13.578125 L 29.03125 -13.578125 L 29.03125 -12.328125 C 29.03125 -8.003906 27.960938 -4.757812 25.828125 -2.59375 C 23.691406 -0.4375 20.5625 0.640625 16.4375 0.640625 C 12.332031 0.640625 9.21875 -0.445312 7.09375 -2.625 C 4.96875 -4.800781 3.90625 -8.035156 3.90625 -12.328125 L 3.90625 -32.8125 Z M 8.375 -32.8125 "/>
          </g>
        </g>
      </g>
      <g fill="#ffffff" fill-opacity="1">
        <g transform="translate(224.948407, 42.816083)">
          <g>
            <path d="M 29.03125 -28.96875 L 29.03125 -12.328125 C 29.03125 -8.066406 27.972656 -4.835938 25.859375 -2.640625 C 23.742188 -0.453125 20.617188 0.640625 16.484375 0.640625 C 12.328125 0.640625 9.191406 -0.4375 7.078125 -2.59375 C 4.960938 -4.757812 3.90625 -8.003906 3.90625 -12.328125 L 3.90625 -32.8125 L 8.375 -32.8125 L 8.375 -12.875 C 8.375 -11.125 8.523438 -9.617188 8.828125 -8.359375 C 9.140625 -7.109375 9.617188 -6.082031 10.265625 -5.28125 C 10.921875 -4.488281 11.757812 -3.90625 12.78125 -3.53125 C 13.8125 -3.15625 15.046875 -2.96875 16.484375 -2.96875 C 17.910156 -2.96875 19.132812 -3.15625 20.15625 -3.53125 C 21.175781 -3.90625 22.015625 -4.488281 22.671875 -5.28125 C 23.328125 -6.082031 23.804688 -7.109375 24.109375 -8.359375 C 24.421875 -9.617188 24.578125 -11.125 24.578125 -12.875 L 24.578125 -32.8125 L 34.53125 -32.8125 L 34.53125 -28.96875 Z M 29.03125 -28.96875 "/>
          </g>
        </g>
      </g>
    </g>
  </g>
</svg>