<svg xmlns="http://www.w3.org/2000/svg" xmlns:xlink="http://www.w3.org/1999/xlink" width="1080" zoomAndPan="magnify"
     viewBox="0 0 810 1439.999935" height="1920" preserveAspectRatio="xMidYMid meet" version="1.0">
  <defs>
    <g/>
    <clipPath id="5bfec4af3b">
      <path d="M 257.46875 633 L 552.21875 633 L 552.21875 806.957031 L 257.46875 806.957031 Z M 257.46875 633 "
            clip-rule="nonzero"/>
    </clipPath>
    <clipPath id="cff9723670">
      <rect x="0" width="283" y="0" height="55"/>
    </clipPath>
  </defs>
  <path fill="#ffffff"
        d="M 379.675781 655.332031 C 381.082031 655.394531 382.457031 655.4375 383.847656 655.5 C 384.996094 655.542969 386.144531 655.664062 387.28125 655.832031 C 387.882812 655.921875 388.246094 656.253906 388.324219 656.753906 C 388.457031 657.554688 387.867188 658.144531 386.976562 658.039062 C 385.359375 657.828125 383.742188 657.691406 382.125 657.644531 C 376.621094 657.492188 371.210938 657.960938 365.996094 659.898438 C 363.5625 660.804688 361.324219 662.027344 359.375 663.765625 C 356.671875 666.183594 354.949219 669.195312 354.175781 672.730469 C 353.34375 676.523438 353.253906 680.347656 354.054688 684.15625 C 355.128906 689.265625 357.847656 693.316406 362.007812 696.445312 C 364.710938 698.472656 367.734375 699.847656 370.953125 700.832031 C 371.089844 700.875 371.242188 700.890625 371.378906 700.953125 C 371.589844 701.027344 371.742188 700.953125 371.769531 700.738281 C 371.96875 699.214844 372.527344 697.777344 372.769531 696.265625 C 372.769531 696.234375 372.738281 696.203125 372.722656 696.175781 C 372.375 696.097656 372.210938 696.386719 372.011719 696.582031 C 371.664062 696.945312 371.332031 697.324219 370.984375 697.6875 C 370.457031 698.246094 369.851562 698.289062 369.351562 697.835938 C 368.898438 697.429688 368.867188 696.824219 369.320312 696.265625 C 370.5 694.8125 371.890625 693.574219 373.386719 692.457031 C 376.652344 689.992188 380.265625 688.316406 384.316406 687.679688 C 387.398438 687.195312 390.5 687.273438 393.597656 687.527344 C 394.203125 687.574219 394.792969 687.621094 395.425781 687.664062 C 395.394531 687.242188 395.125 687.136719 394.957031 686.953125 C 393.476562 685.503906 392.148438 683.929688 391.132812 682.101562 C 391.027344 681.921875 390.921875 681.738281 390.847656 681.558594 C 390.527344 680.847656 390.710938 680.257812 391.300781 679.972656 C 391.890625 679.683594 392.496094 679.894531 392.828125 680.574219 C 393.203125 681.316406 393.644531 682.011719 394.125 682.675781 C 396.515625 685.867188 399.628906 688.164062 403.152344 689.945312 C 406.371094 691.578125 409.800781 692.53125 413.308594 693.289062 C 418.839844 694.464844 424.417969 695.191406 430.054688 695.628906 C 430.269531 695.644531 430.464844 695.660156 430.675781 695.691406 C 431.339844 695.796875 431.792969 696.296875 431.765625 696.871094 C 431.734375 697.503906 431.191406 697.941406 430.464844 697.882812 C 428.847656 697.761719 427.230469 697.625 425.613281 697.445312 C 420.472656 696.871094 415.363281 696.097656 410.347656 694.84375 C 406.777344 693.953125 403.332031 692.726562 400.171875 690.824219 C 399.839844 690.613281 399.476562 690.507812 399.101562 690.445312 C 395.746094 689.902344 392.375 689.523438 388.957031 689.539062 C 385.648438 689.554688 382.425781 690.054688 379.390625 691.457031 C 378.390625 691.925781 377.425781 692.425781 376.503906 693.015625 C 376.230469 693.183594 376.035156 693.347656 376.109375 693.710938 C 376.183594 694.042969 376.019531 694.347656 375.898438 694.648438 C 373.886719 699.242188 373.238281 704.066406 373.644531 709.023438 C 373.8125 711.046875 374.566406 712.921875 375.503906 714.722656 C 375.808594 715.3125 375.820312 715.3125 376.457031 715.085938 C 378.949219 714.175781 381.476562 713.359375 384.058594 712.710938 C 388.488281 711.609375 392.960938 710.867188 397.542969 710.925781 C 400.945312 710.972656 404.316406 711.367188 407.671875 711.957031 C 412.992188 712.90625 418.234375 714.175781 423.40625 715.78125 C 423.601562 715.839844 423.8125 715.886719 423.996094 715.976562 C 424.570312 716.25 424.828125 716.824219 424.613281 717.367188 C 424.386719 717.941406 423.875 718.214844 423.253906 718.03125 C 421.832031 717.640625 420.429688 717.183594 419.007812 716.792969 C 414.171875 715.445312 409.257812 714.390625 404.285156 713.664062 C 397.480469 712.664062 390.800781 713.195312 384.179688 714.949219 C 381.519531 715.660156 378.90625 716.476562 376.335938 717.457031 C 375.1875 717.894531 374.777344 717.789062 374.128906 716.730469 C 373.296875 715.402344 372.679688 713.964844 372.164062 712.484375 C 371.257812 709.824219 371.242188 707.089844 371.378906 704.335938 C 371.378906 704.246094 371.394531 704.15625 371.394531 704.066406 C 371.453125 703.128906 371.46875 703.25 370.605469 703.007812 C 366.074219 701.707031 361.992188 699.605469 358.53125 696.371094 C 354.371094 692.5 352.105469 687.679688 351.5 682.058594 C 351.078125 678.203125 351.320312 674.378906 352.46875 670.660156 C 353.859375 666.125 356.609375 662.617188 360.617188 660.09375 C 363.773438 658.097656 367.25 656.90625 370.910156 656.210938 C 372.617188 655.875 374.339844 655.621094 376.09375 655.527344 C 376.636719 655.5 376.925781 655.273438 377.199219 654.832031 C 379.164062 651.734375 381.566406 649.042969 384.46875 646.792969 C 389.003906 643.269531 394.082031 641.183594 399.855469 640.898438 C 406.292969 640.578125 412.371094 641.925781 418.023438 645.023438 C 421.757812 647.078125 424.675781 649.996094 426.566406 653.867188 C 427.394531 655.574219 427.96875 657.375 428.242188 659.246094 C 428.394531 660.230469 428.378906 660.230469 429.40625 660.394531 C 432.65625 660.894531 435.726562 661.894531 438.582031 663.523438 C 442.4375 665.730469 445.230469 668.859375 446.789062 673.046875 C 447.90625 676.054688 448.210938 679.199219 448 682.375 C 447.863281 684.550781 447.574219 686.726562 446.910156 688.828125 C 445.988281 691.746094 444.429688 694.316406 442.449219 696.613281 C 439.382812 700.164062 435.632812 702.871094 431.539062 705.125 C 429.648438 706.167969 427.699219 707.074219 425.6875 707.875 C 425.445312 707.980469 425.1875 708.085938 424.949219 708.144531 C 424.359375 708.3125 423.785156 708.011719 423.585938 707.464844 C 423.390625 706.96875 423.617188 706.40625 424.132812 706.105469 C 424.28125 706.015625 424.464844 705.984375 424.628906 705.910156 C 429.617188 703.929688 434.214844 701.328125 438.234375 697.746094 C 440.636719 695.601562 442.632812 693.136719 444.023438 690.203125 C 444.929688 688.285156 445.351562 686.242188 445.625 684.144531 C 445.925781 681.695312 445.957031 679.261719 445.535156 676.8125 C 444.6875 671.914062 442.101562 668.210938 437.886719 665.625 C 434.800781 663.75 431.417969 662.785156 427.863281 662.359375 C 426.761719 662.226562 426.308594 661.773438 426.21875 660.683594 C 425.75 655.40625 423.210938 651.3125 419.007812 648.214844 C 416.105469 646.082031 412.824219 644.796875 409.332031 643.980469 C 405.507812 643.074219 401.65625 642.679688 397.738281 643.285156 C 393.6875 643.921875 390.03125 645.460938 386.71875 647.851562 C 384.121094 649.738281 381.882812 652.007812 380.007812 654.621094 C 379.796875 654.847656 379.617188 654.984375 379.675781 655.332031 Z M 372.8125 695.902344 C 372.796875 695.917969 372.753906 695.949219 372.769531 695.964844 C 372.769531 696.007812 372.796875 696.039062 372.8125 696.085938 C 372.828125 696.070312 372.875 696.039062 372.859375 696.023438 C 372.84375 695.976562 372.828125 695.949219 372.8125 695.902344 Z M 372.8125 695.902344 "
        fill-opacity="1" fill-rule="nonzero"/>
  <g clip-path="url(#5bfec4af3b)">
    <path fill="#ffffff"
          d="M 257.484375 746.507812 C 257.484375 737.199219 257.484375 727.886719 257.46875 718.589844 C 257.46875 717.820312 257.601562 717.183594 258.34375 716.808594 C 258.707031 716.625 259.085938 716.65625 259.476562 716.65625 C 265.011719 716.65625 270.527344 716.65625 276.058594 716.65625 C 283.617188 716.65625 291.191406 716.65625 298.746094 716.65625 C 298.960938 716.65625 299.15625 716.640625 299.367188 716.65625 C 299.804688 716.6875 299.972656 716.488281 300.0625 716.050781 C 300.378906 714.464844 300.726562 712.878906 301.105469 711.304688 C 302.570312 705.257812 304.597656 699.425781 307.152344 693.757812 C 309.660156 688.164062 312.640625 682.84375 316.117188 677.792969 C 318.445312 674.410156 320.953125 671.171875 323.671875 668.089844 C 325.515625 666.003906 327.40625 663.980469 329.417969 662.058594 C 335.085938 656.617188 341.269531 651.855469 348.023438 647.835938 C 354.402344 644.027344 361.128906 640.925781 368.1875 638.585938 C 373.238281 636.90625 378.375 635.605469 383.621094 634.746094 C 386.507812 634.277344 389.394531 633.929688 392.296875 633.65625 C 396.304688 633.292969 400.324219 633.25 404.328125 633.371094 C 407.035156 633.445312 409.742188 633.6875 412.445312 634.003906 C 416.347656 634.457031 420.199219 635.125 424.023438 636.015625 C 430.617188 637.558594 436.996094 639.75 443.175781 642.558594 C 450.007812 645.671875 456.402344 649.496094 462.386719 654.003906 C 467.347656 657.722656 471.882812 661.894531 476.082031 666.441406 C 481.269531 672.066406 485.757812 678.203125 489.550781 684.851562 C 492.996094 690.871094 495.824219 697.15625 497.984375 703.746094 C 499.269531 707.675781 500.359375 711.652344 501.128906 715.71875 C 501.144531 715.78125 501.160156 715.839844 501.160156 715.886719 C 501.339844 716.65625 501.339844 716.65625 502.140625 716.65625 C 506.964844 716.65625 511.769531 716.65625 516.59375 716.65625 C 527.640625 716.65625 538.691406 716.65625 549.742188 716.65625 C 550.316406 716.65625 550.859375 716.703125 551.386719 716.914062 C 552.082031 717.199219 552.476562 717.699219 552.492188 718.46875 C 552.492188 718.652344 552.492188 718.816406 552.492188 719 C 552.492188 737.410156 552.492188 755.820312 552.492188 774.214844 C 552.492188 776.242188 552.039062 776.695312 549.984375 776.695312 C 532.722656 776.695312 515.472656 776.695312 498.210938 776.695312 C 496.851562 776.695312 497.019531 776.800781 497.003906 775.515625 C 497.003906 774.988281 497.003906 774.457031 497.003906 773.914062 C 497.003906 773.582031 497.125 773.414062 497.472656 773.414062 C 497.714844 773.414062 497.941406 773.414062 498.183594 773.414062 C 514.808594 773.414062 531.449219 773.414062 548.078125 773.414062 C 549.421875 773.414062 549.300781 773.550781 549.300781 772.175781 C 549.300781 755.15625 549.300781 738.136719 549.300781 721.117188 C 549.300781 719.664062 549.484375 719.816406 548.046875 719.816406 C 531.464844 719.816406 514.898438 719.816406 498.316406 719.816406 C 498.195312 719.816406 498.074219 719.816406 497.96875 719.816406 C 496.957031 719.816406 496.941406 719.859375 497.019531 718.863281 C 497.183594 716.476562 496.445312 714.253906 495.882812 712 C 494.386719 705.878906 492.273438 699.96875 489.597656 694.253906 C 486.253906 687.105469 482.113281 680.453125 477.1875 674.300781 C 474.375 670.796875 471.351562 667.484375 468.070312 664.402344 C 462.585938 659.246094 456.597656 654.757812 450.097656 650.964844 C 443.691406 647.230469 436.964844 644.253906 429.890625 642.046875 C 425.292969 640.609375 420.625 639.523438 415.863281 638.78125 C 412.128906 638.207031 408.378906 637.828125 404.601562 637.675781 C 402.578125 637.601562 400.566406 637.542969 398.570312 637.601562 C 395.53125 637.691406 392.507812 637.890625 389.484375 638.238281 C 385.875 638.644531 382.304688 639.25 378.769531 640.050781 C 372.285156 641.53125 365.996094 643.648438 359.933594 646.414062 C 352.316406 649.890625 345.273438 654.257812 338.757812 659.519531 C 334.933594 662.601562 331.382812 665.988281 328.070312 669.601562 C 323.386719 674.710938 319.320312 680.273438 315.8125 686.273438 C 312.171875 692.515625 309.253906 699.09375 307.046875 705.96875 C 306.035156 709.144531 305.21875 712.378906 304.476562 715.628906 C 304.308594 716.398438 304.507812 717.140625 304.460938 717.894531 C 304.445312 718.242188 304.460938 718.605469 304.460938 718.953125 C 304.460938 719.800781 304.445312 719.816406 303.570312 719.816406 C 297.691406 719.816406 291.808594 719.816406 285.929688 719.816406 C 277.859375 719.816406 269.800781 719.816406 261.730469 719.816406 C 260.613281 719.816406 260.65625 719.726562 260.65625 720.859375 C 260.65625 738 260.65625 755.140625 260.65625 772.265625 C 260.65625 772.328125 260.65625 772.386719 260.65625 772.449219 C 260.65625 773.414062 260.65625 773.414062 261.640625 773.414062 C 275.289062 773.414062 288.9375 773.414062 302.585938 773.414062 C 303.175781 773.414062 303.917969 773.15625 304.296875 773.535156 C 304.71875 773.960938 304.417969 774.714844 304.445312 775.320312 C 304.460938 775.605469 304.445312 775.910156 304.445312 776.210938 C 304.445312 776.5 304.296875 776.648438 304.007812 776.664062 C 303.796875 776.679688 303.601562 776.679688 303.386719 776.679688 C 289.027344 776.679688 274.667969 776.679688 260.308594 776.679688 C 259.703125 776.679688 259.128906 776.589844 258.570312 776.394531 C 257.875 776.152344 257.511719 775.667969 257.46875 774.941406 C 257.453125 774.65625 257.46875 774.351562 257.46875 774.050781 C 257.484375 764.890625 257.484375 755.699219 257.484375 746.507812 Z M 453.910156 792.171875 C 454.226562 792.171875 454.558594 792.1875 454.875 792.15625 C 455.707031 792.066406 456.238281 791.433594 456.238281 790.585938 C 456.238281 789.722656 455.707031 789.105469 454.875 789.015625 C 454.664062 788.984375 454.46875 789 454.257812 789 C 419.703125 789 385.132812 789 350.578125 789 C 350.398438 789 350.214844 788.984375 350.050781 789 C 349.355469 789.058594 348.78125 789.527344 348.644531 790.148438 C 348.460938 790.933594 348.734375 791.570312 349.386719 791.976562 C 349.792969 792.234375 350.230469 792.171875 350.667969 792.171875 C 367.917969 792.171875 385.164062 792.171875 402.425781 792.171875 C 419.597656 792.171875 436.753906 792.171875 453.910156 792.171875 Z M 439.214844 806.53125 C 439.488281 806.53125 439.746094 806.546875 440.015625 806.519531 C 440.863281 806.441406 441.5 805.730469 441.5 804.914062 C 441.484375 804.097656 440.832031 803.417969 439.988281 803.34375 C 439.777344 803.328125 439.578125 803.34375 439.367188 803.34375 C 415.242188 803.34375 391.105469 803.34375 366.980469 803.34375 C 366.738281 803.34375 366.511719 803.328125 366.269531 803.359375 C 365.632812 803.433594 365.089844 803.917969 364.953125 804.507812 C 364.789062 805.234375 365.015625 805.824219 365.574219 806.230469 C 365.996094 806.546875 366.449219 806.519531 366.917969 806.519531 C 378.996094 806.519531 391.074219 806.519531 403.164062 806.519531 C 415.167969 806.53125 427.199219 806.53125 439.214844 806.53125 Z M 439.214844 806.53125 "
          fill-opacity="1" fill-rule="nonzero"/>
  </g>
  <g transform="matrix(1, 0, 0, 1, 274, 719)">
    <g clip-path="url(#cff9723670)">
      <g fill="#ffffff" fill-opacity="1">
        <g transform="translate(1.415417, 42.816083)">
          <g>
            <path
              d="M 21.328125 -24.625 L 21.328125 -8.8125 C 21.328125 -7.71875 21.523438 -6.796875 21.921875 -6.046875 C 22.316406 -5.296875 22.820312 -4.691406 23.4375 -4.234375 C 24.050781 -3.785156 24.726562 -3.460938 25.46875 -3.265625 C 26.21875 -3.066406 26.941406 -2.96875 27.640625 -2.96875 C 28.347656 -2.96875 29.0625 -3.066406 29.78125 -3.265625 C 30.5 -3.460938 31.15625 -3.785156 31.75 -4.234375 C 32.34375 -4.691406 32.828125 -5.296875 33.203125 -6.046875 C 33.578125 -6.796875 33.765625 -7.71875 33.765625 -8.8125 L 33.765625 -24.625 L 38.21875 -24.625 L 38.21875 -9.34375 C 38.21875 -7.59375 37.953125 -6.09375 37.421875 -4.84375 C 36.898438 -3.59375 36.171875 -2.5625 35.234375 -1.75 C 34.296875 -0.9375 33.179688 -0.335938 31.890625 0.046875 C 30.597656 0.441406 29.179688 0.640625 27.640625 0.640625 C 26.109375 0.640625 24.6875 0.441406 23.375 0.046875 C 22.0625 -0.335938 20.921875 -0.9375 19.953125 -1.75 C 18.984375 -2.5625 18.222656 -3.59375 17.671875 -4.84375 C 17.128906 -6.09375 16.859375 -7.59375 16.859375 -9.34375 L 16.859375 -20.765625 L 8.59375 -20.765625 L 8.59375 0 L 4.125 0 L 4.125 -32.8125 L 8.59375 -32.8125 L 8.59375 -24.625 Z M 21.328125 -24.625 "/>
          </g>
        </g>
      </g>
      <g fill="#ffffff" fill-opacity="1">
        <g transform="translate(63.892312, 42.816083)">
          <g>
            <path
              d="M 3.90625 0 L 3.90625 -20.484375 C 3.90625 -24.804688 4.960938 -28.046875 7.078125 -30.203125 C 9.191406 -32.367188 12.328125 -33.453125 16.484375 -33.453125 C 20.617188 -33.453125 23.742188 -32.359375 25.859375 -30.171875 C 27.972656 -27.992188 29.03125 -24.765625 29.03125 -20.484375 L 29.03125 0 L 24.578125 0 L 24.578125 -19.9375 C 24.578125 -21.707031 24.414062 -23.21875 24.09375 -24.46875 C 23.78125 -25.726562 23.296875 -26.753906 22.640625 -27.546875 C 21.984375 -28.347656 21.144531 -28.929688 20.125 -29.296875 C 19.101562 -29.660156 17.890625 -29.84375 16.484375 -29.84375 C 15.046875 -29.84375 13.816406 -29.660156 12.796875 -29.296875 C 11.785156 -28.929688 10.945312 -28.347656 10.28125 -27.546875 C 9.625 -26.753906 9.140625 -25.726562 8.828125 -24.46875 C 8.523438 -23.21875 8.375 -21.707031 8.375 -19.9375 L 8.375 0 Z M 3.90625 0 "/>
          </g>
        </g>
      </g>
      <g fill="#ffffff" fill-opacity="1">
        <g transform="translate(117.819447, 42.816083)">
          <g>
            <path
              d="M 28.703125 -3.34375 L 28.703125 1.1875 L 6.6875 -5.84375 C 5.769531 -6.125 4.9375 -6.472656 4.1875 -6.890625 C 3.4375 -7.304688 2.828125 -7.789062 2.359375 -8.34375 C 1.898438 -8.90625 1.628906 -9.535156 1.546875 -10.234375 C 1.460938 -10.941406 1.632812 -11.722656 2.0625 -12.578125 C 2.5 -13.441406 3.226562 -14.378906 4.25 -15.390625 C 5.269531 -16.398438 6.648438 -17.488281 8.390625 -18.65625 C 10.660156 -20.1875 12.9375 -21.554688 15.21875 -22.765625 C 17.507812 -23.984375 19.859375 -25.113281 22.265625 -26.15625 L 17.71875 -32.8125 L 22.953125 -32.8125 L 28.640625 -24.578125 C 26.984375 -23.941406 25.410156 -23.300781 23.921875 -22.65625 C 22.429688 -22.007812 20.976562 -21.332031 19.5625 -20.625 C 18.15625 -19.914062 16.765625 -19.160156 15.390625 -18.359375 C 14.023438 -17.566406 12.640625 -16.703125 11.234375 -15.765625 C 9.722656 -14.753906 8.617188 -13.910156 7.921875 -13.234375 C 7.222656 -12.554688 6.828125 -11.988281 6.734375 -11.53125 C 6.640625 -11.082031 6.796875 -10.71875 7.203125 -10.4375 C 7.617188 -10.15625 8.171875 -9.90625 8.859375 -9.6875 Z M 28.703125 -3.34375 "/>
          </g>
        </g>
      </g>
      <g fill="#ffffff" fill-opacity="1">
        <g transform="translate(171.021272, 42.816083)">
          <g>
            <path
              d="M 8.375 -32.8125 L 8.375 -24.625 L 29.25 -24.625 L 29.25 -20.765625 L 8.375 -20.765625 L 8.375 -12.875 C 8.375 -11.101562 8.523438 -9.59375 8.828125 -8.34375 C 9.140625 -7.09375 9.625 -6.066406 10.28125 -5.265625 C 10.945312 -4.460938 11.785156 -3.878906 12.796875 -3.515625 C 13.816406 -3.148438 15.046875 -2.96875 16.484375 -2.96875 C 17.890625 -2.96875 19.101562 -3.148438 20.125 -3.515625 C 21.144531 -3.878906 21.984375 -4.460938 22.640625 -5.265625 C 23.296875 -6.066406 23.78125 -7.09375 24.09375 -8.34375 C 24.414062 -9.59375 24.578125 -11.101562 24.578125 -12.875 L 24.578125 -13.578125 L 29.03125 -13.578125 L 29.03125 -12.328125 C 29.03125 -8.003906 27.960938 -4.757812 25.828125 -2.59375 C 23.691406 -0.4375 20.5625 0.640625 16.4375 0.640625 C 12.332031 0.640625 9.21875 -0.445312 7.09375 -2.625 C 4.96875 -4.800781 3.90625 -8.035156 3.90625 -12.328125 L 3.90625 -32.8125 Z M 8.375 -32.8125 "/>
          </g>
        </g>
      </g>
      <g fill="#ffffff" fill-opacity="1">
        <g transform="translate(224.948407, 42.816083)">
          <g>
            <path
              d="M 29.03125 -28.96875 L 29.03125 -12.328125 C 29.03125 -8.066406 27.972656 -4.835938 25.859375 -2.640625 C 23.742188 -0.453125 20.617188 0.640625 16.484375 0.640625 C 12.328125 0.640625 9.191406 -0.4375 7.078125 -2.59375 C 4.960938 -4.757812 3.90625 -8.003906 3.90625 -12.328125 L 3.90625 -32.8125 L 8.375 -32.8125 L 8.375 -12.875 C 8.375 -11.125 8.523438 -9.617188 8.828125 -8.359375 C 9.140625 -7.109375 9.617188 -6.082031 10.265625 -5.28125 C 10.921875 -4.488281 11.757812 -3.90625 12.78125 -3.53125 C 13.8125 -3.15625 15.046875 -2.96875 16.484375 -2.96875 C 17.910156 -2.96875 19.132812 -3.15625 20.15625 -3.53125 C 21.175781 -3.90625 22.015625 -4.488281 22.671875 -5.28125 C 23.328125 -6.082031 23.804688 -7.109375 24.109375 -8.359375 C 24.421875 -9.617188 24.578125 -11.125 24.578125 -12.875 L 24.578125 -32.8125 L 34.53125 -32.8125 L 34.53125 -28.96875 Z M 29.03125 -28.96875 "/>
          </g>
        </g>
      </g>
    </g>
  </g>
</svg>
